<svg width="547" height="286" viewBox="0 0 547 286" fill="none" xmlns="http://www.w3.org/2000/svg">
<path d="M439.93 182.259C447.127 182.259 452.231 180.951 456.026 178.202V165.509C452.1 168.257 447.389 169.958 440.846 169.958C429.723 169.958 425.142 161.321 425.142 147.711C425.142 133.447 430.77 126.119 440.977 126.119C446.997 126.119 452.885 128.212 456.026 130.175V116.958C452.755 115.126 446.997 113.817 439.276 113.817C419.384 113.817 409.046 128.082 409.046 148.104C409.046 170.089 419.123 182.259 439.93 182.259ZM342.567 176.501V163.807C337.725 167.079 329.612 169.958 322.021 169.958C310.636 169.958 306.318 164.593 305.663 153.6H343.221V145.356C343.221 122.454 333.145 113.817 317.572 113.817C298.597 113.817 289.567 128.343 289.567 148.235C289.567 171.136 300.822 182.259 320.713 182.259C330.658 182.259 337.987 179.642 342.567 176.501ZM199.925 115.126V141.168H179.118V115.126H163.545V180.951H179.118V153.469H199.925V180.951H215.498V115.126H199.925ZM285.772 168.649H278.836V115.126H233.427V120.753C233.427 136.849 232.38 157.657 226.883 168.649H222.041V196H236.436V180.951H271.377V196H285.772V168.649ZM392.295 180.951H409.962L384.967 145.486L406.952 115.126H391.249L369.263 145.486V115.126H353.691V180.951H369.263V148.627L392.295 180.951ZM317.31 126.119C325.031 126.119 327.387 132.531 327.387 140.775V142.084H305.663C306.056 131.615 309.851 126.119 317.31 126.119ZM263.264 168.649H241.278C245.597 158.704 246.775 140.775 246.775 129.39V127.427H263.264V168.649Z" fill="black"/>
<path d="M150.459 180.95H134.625V102.301H127.558C114.602 102.301 107.798 108.844 107.798 118.528C107.798 129.521 112.509 134.625 122.193 141.168L130.175 146.533L107.143 180.95H90L110.677 150.197C98.7679 141.691 92.0938 133.447 92.0938 119.444C92.0938 101.909 104.264 90 127.427 90H150.459V180.95Z" fill="#FC3F1D"/>
</svg>
