<svg xmlns="http://www.w3.org/2000/svg" xmlns:xlink="http://www.w3.org/1999/xlink" width="171" height="48"><svg width="171" height="48" viewBox="0 0 171 48" xmlns="http://www.w3.org/2000/svg">
<path d="M98.8,41.2c3.3,0,6-1.5,7.8-4.4l0.4,3.8h6.4V0h-6.9v14.7c-1.7-2.6-4.3-4-7.4-4c-6.7,0-11.4,5.7-11.4,15.5C87.7,35.8,92.3,41.2,98.8,41.2z M141.5,38.6v-5.7c-2.2,1.5-5.8,2.8-9.2,2.8c-5.1,0-7-2.4-7.3-7.3h16.8v-3.7c0-10.2-4.5-14.1-11.4-14.1c-8.5,0-12.5,6.5-12.5,15.4c0,10.2,5,15.2,13.9,15.2C136.2,41.2,139.5,40,141.5,38.6z M66.7,19.5c1.3-1.6,3.3-2.9,5.8-2.9c2.4,0,3.6,1.1,3.6,3.3v20.7H83V19.2c0-5.8-2.3-8.4-8-8.4c-4.1,0-6.6,1.5-8,2.9h-0.4l-0.2-2.4h-6.8v29.4h6.9L66.7,19.5L66.7,19.5z M54.1,20.6c0-7.1-3.6-9.8-11-9.8c-4.6,0-8.2,1.9-10.3,3.4v6c2.2-1.8,5.6-3.9,9.5-3.9c3.3,0,4.8,1.2,4.8,4.3v1.9H46c-10.6,0-15.4,3.4-15.4,9.6c0,5.7,3.6,8.9,9,8.9c4.1,0,5.8-1.3,7.2-2.8h0.3c0,0.8,0.3,1.7,0.5,2.3h6.8c-0.2-2.4-0.4-4.8-0.4-7.2L54.1,20.6L54.1,20.6z M162.9,40.6h7.8l-9.6-15.1l8.3-14.2h-6.9l-5,8.9l-5.6-8.9H144l8.9,14.1l-9.2,15.3h7.1l5.9-9.9L162.9,40.6z M100.9,16.1c3.7,0,5.6,3,5.6,9.7c0,6.8-2,9.8-5.9,9.8c-3.8,0-5.7-2.9-5.7-9.6C94.9,19.2,96.9,16.1,100.9,16.1z M130.3,16.1c3.4,0,4.5,2.9,4.5,6.5v0.6h-9.7C125.2,18.6,126.9,16.1,130.3,16.1z M47.1,33.6c-0.9,1.3-2.5,2.3-5,2.3c-2.9,0-4.4-1.7-4.4-4.3c0-3.4,2.4-4.6,8.4-4.6h1V33.6z" fill="#000"/>
<path d="M20.4,33.7v6.9h-7.1V29L0,0h7.4l10.4,22.7C19.7,27,20.4,28.5,20.4,33.7z M33.7,0L25,19.6h-7.2L26.5,0H33.7z" fill="#FC3F1D"/>
</svg></svg>