<svg xmlns="http://www.w3.org/2000/svg" xmlns:xlink="http://www.w3.org/1999/xlink" width="171" height="48"><svg width="171" height="48" viewBox="0 0 171 48" xmlns="http://www.w3.org/2000/svg">
<path d="M160.5,41.8c3.3,0,5.6-0.6,7.3-1.8v-5.7c-1.8,1.2-3.9,2-6.9,2c-5,0-7.1-3.9-7.1-10.1c0-6.5,2.5-9.8,7.2-9.8c2.7,0,5.4,0.9,6.8,1.8v-6c-1.5-0.8-4.1-1.4-7.6-1.4c-9,0-13.7,6.5-13.7,15.5C146.5,36.3,151,41.8,160.5,41.8z M116.4,39.2v-5.7c-2.2,1.5-5.9,2.8-9.3,2.8c-5.2,0-7.1-2.4-7.4-7.4h17v-3.7c0-10.4-4.6-14.3-11.6-14.3c-8.6,0-12.7,6.6-12.7,15.6c0,10.4,5.1,15.4,14.1,15.4C111,41.8,114.3,40.6,116.4,39.2z M51.8,11.4v11.8h-9.4V11.4h-7.1v29.8h7.1V28.7h9.4v12.4h7.1V11.4H51.8zM90.6,35.6h-3.1V11.4H66.9v2.5c0,7.3-0.5,16.7-3,21.7h-2.2V48h6.5v-6.8h15.8V48h6.5V35.6z M138.9,41.2h8l-11.3-16.1l10-13.7h-7.1l-10,13.7V11.4h-7.1v29.8h7.1V26.5L138.9,41.2z M104.9,16.4c3.5,0,4.6,2.9,4.6,6.6v0.6h-9.8C99.8,18.8,101.6,16.4,104.9,16.4zM80.5,35.6h-10c2-4.5,2.5-12.6,2.5-17.8v-0.9h7.5V35.6z" fill="#000"/>
<path d="M29.4,41.2h-7.2V5.6H19c-5.9,0-8.9,3-8.9,7.3c0,5,2.1,7.3,6.5,10.3l3.6,2.4L9.8,41.2H2l9.4-13.9C6,23.4,2.9,19.7,2.9,13.3C2.9,5.4,8.5,0,18.9,0h10.4V41.2z" fill="#FC3F1D"/>
</svg></svg>